<svg width="48" height="48" viewBox="0 0 48 48" fill="none" xmlns="http://www.w3.org/2000/svg">
<g clip-path="url(#clip0)">
<path d="M20.5798 7.72004L3.6398 36C3.29053 36.6049 3.10573 37.2906 3.10378 37.9891C3.10182 38.6875 3.28278 39.3743 3.62865 39.9811C3.97452 40.5879 4.47325 41.0935 5.07521 41.4477C5.67718 41.802 6.3614 41.9924 7.0598 42H40.9398C41.6382 41.9924 42.3224 41.802 42.9244 41.4477C43.5263 41.0935 44.0251 40.5879 44.3709 39.9811C44.7168 39.3743 44.8978 38.6875 44.8958 37.9891C44.8939 37.2906 44.7091 36.6049 44.3598 36L27.4198 7.72004C27.0633 7.13226 26.5612 6.64628 25.9622 6.30901C25.3631 5.97174 24.6873 5.79456 23.9998 5.79456C23.3123 5.79456 22.6365 5.97174 22.0374 6.30901C21.4384 6.64628 20.9363 7.13226 20.5798 7.72004V7.72004Z" stroke="#074EE8" stroke-width="2" stroke-linecap="round" stroke-linejoin="round"/>
<path d="M24 36H24.02" stroke="#074EE8" stroke-width="2" stroke-linecap="round" stroke-linejoin="round"/>
<path d="M24 15V30" stroke="#074EE8" stroke-width="2" stroke-linecap="round" stroke-linejoin="round"/>
</g>
<defs>
<clipPath id="clip0">
<rect width="48" height="48" fill="white"/>
</clipPath>
</defs>
</svg>
