<svg width="45" height="45" viewBox="0 0 45 45" fill="none" xmlns="http://www.w3.org/2000/svg">
<g clip-path="url(#clip0)">
<path d="M8.03524 36.6504C5.73321 36.6504 3.86035 38.5233 3.86035 40.8252C3.86035 43.1271 5.73321 45 8.03524 45C10.3373 45 12.2101 43.1271 12.2101 40.8252C12.2101 38.5233 10.3373 36.6504 8.03524 36.6504ZM8.03524 43.6816C6.46016 43.6816 5.17871 42.4002 5.17871 40.8252C5.17871 39.2502 6.46016 37.9688 8.03524 37.9688C9.61033 37.9688 10.8918 39.2502 10.8918 40.8252C10.8918 42.4002 9.61033 43.6816 8.03524 43.6816Z" fill="white"/>
<path d="M44.8241 14.1799C44.8216 14.1732 44.8185 14.167 44.8159 14.1604C44.8156 14.1597 44.8154 14.1589 44.8151 14.1582C44.8143 14.1562 44.8132 14.1543 44.8124 14.1523C44.8062 14.1371 44.7997 14.1221 44.7925 14.1076C44.3079 12.9584 43.1892 12.2325 41.4637 11.9513C40.1476 11.7367 38.4276 11.7767 36.3478 12.0694C35.9655 11.5625 35.5549 11.0757 35.1171 10.6114C36.4199 9.50616 37.2489 7.85874 37.2489 6.02051C37.2489 2.70079 34.5481 0 31.2283 0C28.1253 0 25.5636 2.35978 25.2422 5.37891C24.3403 5.23538 23.4212 5.16182 22.4999 5.16182C18.5565 5.16182 14.6969 6.52122 11.6319 8.98963C8.61258 11.4213 6.47236 14.8289 5.60532 18.5849C5.5234 18.9396 5.74463 19.2936 6.09935 19.3755C6.14919 19.387 6.19911 19.3925 6.24815 19.3925C6.54821 19.3925 6.81944 19.1863 6.88984 18.8815C7.6907 15.412 9.6685 12.2637 12.4588 10.0165C15.3313 7.70309 18.8035 6.48026 22.4998 6.48026C23.425 6.48026 24.3474 6.56016 25.2491 6.71643C25.5954 9.70928 28.1441 12.041 31.2284 12.041C32.2312 12.041 33.1767 11.7933 34.0091 11.3578C35.7718 13.1778 37.0783 15.3871 37.8175 17.797C37.3684 18.0938 36.8601 18.4136 36.2811 18.7581C29.5537 22.8252 17.3391 27.3966 9.60364 28.7412C8.95958 28.8578 8.38196 28.9478 7.86094 29.0175C7.53918 28.2968 7.2741 27.559 7.0643 26.8067C7.05929 26.7827 7.05261 26.7589 7.04488 26.7354C6.6702 25.3669 6.47974 23.9508 6.47974 22.5C6.47974 22.1926 6.48853 21.882 6.50585 21.5771C6.52641 21.2136 6.2485 20.9023 5.88499 20.8817C5.522 20.8614 5.21007 21.1389 5.18951 21.5024C5.17079 21.8321 5.16138 22.1678 5.16138 22.5C5.16138 22.9272 5.17817 23.3513 5.2084 23.7727C3.24484 25.0487 1.87832 26.1913 1.03923 27.259C0.0696158 28.493 -0.222708 29.6841 0.168668 30.8C0.170778 30.8065 0.172272 30.8132 0.174557 30.8199C0.55486 31.8979 1.7137 33.1718 5.0662 33.1718C5.11647 33.1718 5.16754 33.1715 5.21878 33.1709C6.23796 33.1587 7.37596 33.0658 8.62331 32.8948C10.1662 34.95 12.1686 36.66 14.438 37.8539C16.9056 39.1521 19.6934 39.8383 22.5 39.8383C27.5907 39.8383 32.4047 37.6132 35.7077 33.7337C35.9437 33.4565 35.9103 33.0405 35.6331 32.8045C35.3559 32.5685 34.9398 32.602 34.7038 32.8791C31.6518 36.4639 27.2036 38.5199 22.5 38.5199C17.7001 38.5199 13.1483 36.348 10.1168 32.6622C11.2126 32.4715 12.3809 32.2279 13.6183 31.9316C13.9723 31.8468 14.1907 31.4911 14.1059 31.137C14.0211 30.7829 13.6648 30.5646 13.3114 30.6495C11.6932 31.037 10.2007 31.3319 8.84295 31.5329C8.83917 31.5333 8.83548 31.5339 8.8317 31.5345C7.48662 31.7333 6.2739 31.8399 5.20357 31.8527C2.51306 31.8841 1.6607 31.0693 1.41803 30.3814C1.41803 30.3813 1.41803 30.3813 1.41795 30.3812C1.41759 30.3801 1.41733 30.379 1.41689 30.3778C0.939821 29.052 2.23744 27.3677 5.37689 25.2431C5.45292 25.7234 5.54907 26.1991 5.66544 26.6699C4.39111 27.5929 3.44637 28.4615 2.85452 29.2559C2.85206 29.259 2.84968 29.2622 2.84722 29.2654C2.84459 29.2689 2.84169 29.2724 2.83914 29.2759C2.83632 29.2798 2.83404 29.2838 2.83131 29.2878C2.82288 29.2998 2.81462 29.312 2.80688 29.3246C2.80205 29.3325 2.79774 29.3405 2.79326 29.3485C2.78746 29.3591 2.78166 29.3696 2.77638 29.3805C2.7712 29.3912 2.76654 29.4021 2.76197 29.4131C2.75933 29.4193 2.75626 29.4251 2.75388 29.4314C2.75274 29.4344 2.75204 29.4374 2.75098 29.4404C2.74668 29.4521 2.74299 29.4639 2.73938 29.4758C2.73648 29.4853 2.7334 29.4949 2.73103 29.5044C2.7284 29.5146 2.72646 29.5248 2.72435 29.5351C2.72198 29.5467 2.71952 29.5583 2.71776 29.57C2.71662 29.5777 2.71591 29.5855 2.71504 29.5932C2.71345 29.6074 2.71187 29.6214 2.71126 29.6355C2.71099 29.6409 2.71117 29.6463 2.71099 29.6517C2.71064 29.6679 2.71047 29.684 2.71126 29.7C2.71143 29.7041 2.71205 29.7082 2.71231 29.7123C2.71345 29.7293 2.71504 29.7462 2.7175 29.763C2.71811 29.7673 2.71917 29.7716 2.71987 29.7759C2.72259 29.7922 2.72558 29.8085 2.72954 29.8244C2.73094 29.8301 2.73279 29.8357 2.73437 29.8414C2.73833 29.8557 2.74228 29.87 2.7472 29.884C2.74975 29.8913 2.75292 29.8985 2.75573 29.9059C2.76039 29.9181 2.76505 29.9302 2.77049 29.942C2.77427 29.9502 2.77867 29.9581 2.78271 29.9662C2.78816 29.9769 2.79352 29.9877 2.7995 29.9981C2.80407 30.006 2.80925 30.0137 2.81418 30.0215C2.82077 30.0319 2.82727 30.0422 2.83448 30.0523C2.83922 30.0589 2.8445 30.0653 2.84951 30.0718C2.85786 30.0826 2.8663 30.0933 2.87535 30.1036C2.87983 30.1087 2.88466 30.1134 2.88932 30.1184C2.89987 30.1297 2.91059 30.1408 2.92202 30.1512C2.92615 30.1551 2.93054 30.1587 2.93485 30.1624C2.94733 30.1733 2.95999 30.1839 2.97335 30.1939C2.97493 30.1951 2.97625 30.1965 2.97792 30.1976C2.97967 30.199 2.98161 30.1997 2.98337 30.201C3.01035 30.2205 3.03865 30.2387 3.06906 30.2542C3.06932 30.2542 3.06959 30.2544 3.06985 30.2546C3.09024 30.265 3.11133 30.2745 3.13322 30.2829C3.40709 30.3881 4.01046 30.5425 5.18898 30.5425C6.23128 30.5425 7.7234 30.4217 9.83453 30.0393C17.6977 28.6725 30.1212 24.0229 36.9595 19.8886C40.9215 17.5317 41.9539 16.1354 42.2139 15.6445C42.2231 15.627 42.2311 15.6093 42.2387 15.5914C42.2393 15.5899 42.2401 15.5885 42.2407 15.5871C42.2548 15.5528 42.2653 15.5178 42.2734 15.4826C42.2738 15.4809 42.2746 15.4793 42.275 15.4775C42.2753 15.4758 42.2755 15.4741 42.2758 15.4724C42.2794 15.4556 42.2821 15.4387 42.2843 15.4218C42.285 15.4167 42.2859 15.4115 42.2864 15.4064C42.2881 15.3905 42.2889 15.3747 42.2895 15.3588C42.2896 15.3525 42.2902 15.3461 42.2902 15.3398C42.2902 15.3258 42.2895 15.3118 42.2887 15.2978C42.2882 15.2899 42.288 15.282 42.2873 15.2742C42.2861 15.2617 42.2841 15.2493 42.2823 15.2369C42.2809 15.228 42.2798 15.2191 42.2781 15.2104C42.2758 15.1984 42.2727 15.1867 42.2698 15.1749C42.2676 15.1662 42.2656 15.1574 42.2631 15.1488C42.2594 15.1363 42.2549 15.1241 42.2504 15.1119C42.2477 15.1045 42.2453 15.097 42.2424 15.0897C42.2369 15.0761 42.2306 15.0627 42.2242 15.0494C42.2215 15.044 42.2191 15.0384 42.2164 15.033C42.209 15.0186 42.2006 15.0046 42.1921 14.9907C42.1896 14.9868 42.1875 14.9827 42.185 14.9788C42.176 14.9649 42.1661 14.9514 42.156 14.9381C42.1533 14.9345 42.1509 14.9308 42.148 14.9273C42.1384 14.915 42.128 14.9034 42.1175 14.8918C42.1134 14.8874 42.1096 14.8829 42.1055 14.8786C42.0962 14.8689 42.0863 14.8598 42.0762 14.8507C42.0699 14.8449 42.0638 14.839 42.0573 14.8335C42.049 14.8264 42.0401 14.8198 42.0314 14.8131C42.0224 14.8062 42.0135 14.7993 42.0042 14.7929C41.9967 14.7878 41.9889 14.783 41.9811 14.7782C41.9699 14.7712 41.9586 14.7642 41.9469 14.7578C41.9444 14.7565 41.9422 14.7548 41.9397 14.7535C41.9341 14.7506 41.9285 14.7484 41.923 14.7457C41.9115 14.74 41.9 14.7344 41.8881 14.7294C41.8779 14.725 41.8675 14.7212 41.8571 14.7175C41.8475 14.7139 41.8381 14.7104 41.8282 14.7074C41.815 14.7032 41.8018 14.6998 41.7886 14.6965C41.7831 14.6952 41.778 14.6934 41.7725 14.6921C41.7677 14.6911 41.7627 14.6902 41.758 14.6892C41.7552 14.6887 41.7524 14.688 41.7495 14.6876C40.778 14.4779 39.4938 14.4434 37.9278 14.5841C37.7006 14.1423 37.4545 13.7105 37.19 13.2895C40.8455 12.8557 43.0497 13.3174 43.5883 14.6412C44.1077 16.1291 42.4007 18.0698 38.3667 20.5755C33.0897 23.8888 23.91 27.739 16.0435 29.9385C15.6929 30.0366 15.4882 30.4002 15.5862 30.7509C15.6676 31.0422 15.9324 31.2327 16.2207 31.2327C16.2794 31.2327 16.3391 31.2248 16.3985 31.2082C24.1067 29.0529 33.0732 25.3249 38.5131 22.0336C38.5175 22.1888 38.5204 22.3443 38.5204 22.4999C38.5204 25.3671 37.7542 28.1799 36.3047 30.6343C36.1196 30.9477 36.2236 31.352 36.5372 31.5371C36.6424 31.5992 36.7578 31.6288 36.8718 31.6288C37.0972 31.6288 37.317 31.5129 37.44 31.3047C39.009 28.6475 39.8386 25.6029 39.8386 22.5C39.8386 22.0751 39.8232 21.6498 39.7929 21.2308C41.6906 19.9972 43.0312 18.8878 43.8751 17.8525C44.9202 16.5704 45.2395 15.3348 44.8241 14.1799ZM26.5261 6.02051C26.5261 3.42773 28.6355 1.31836 31.2284 1.31836C33.8212 1.31836 35.9307 3.42773 35.9307 6.02051C35.9307 8.61328 33.8213 10.7227 31.2284 10.7227C28.6356 10.7227 26.5261 8.61328 26.5261 6.02051ZM4.65232 29.2112C5.03895 28.8329 5.50794 28.4346 6.05822 28.0182C6.18839 28.405 6.33147 28.7882 6.48976 29.167C5.69031 29.2312 5.09125 29.2341 4.65232 29.2112ZM40.3633 15.8355C40.0475 16.1411 39.5935 16.5327 38.9482 17.0096C38.8184 16.6207 38.6753 16.237 38.5184 15.8591C39.2067 15.8117 39.8223 15.8041 40.3633 15.8355Z" fill="white"/>
</g>
<defs>
<clipPath id="clip0">
<rect width="45" height="45" fill="white"/>
</clipPath>
</defs>
</svg>
