<svg width="355" height="278" viewBox="0 0 355 278" fill="none" xmlns="http://www.w3.org/2000/svg">
<g clip-path="url(#clip0)">
<path d="M280.434 178.383C238.621 178.383 205.868 170.497 205.868 160.429C205.868 154.393 217.473 149.008 237.709 145.654C237.781 145.642 237.855 145.644 237.926 145.662C237.998 145.679 238.065 145.711 238.124 145.756C238.184 145.8 238.234 145.857 238.273 145.922C238.311 145.987 238.337 146.059 238.348 146.134C238.36 146.21 238.357 146.287 238.34 146.361C238.323 146.435 238.292 146.505 238.248 146.567C238.205 146.628 238.151 146.68 238.088 146.72C238.026 146.76 237.956 146.786 237.884 146.798C218.822 149.957 206.981 155.18 206.981 160.429C206.981 169.534 240.618 177.225 280.434 177.225C320.25 177.225 353.887 169.534 353.887 160.429C353.887 155.158 341.97 149.922 322.787 146.765C322.641 146.741 322.511 146.657 322.424 146.533C322.338 146.409 322.302 146.254 322.325 146.103C322.348 145.951 322.428 145.815 322.547 145.725C322.666 145.635 322.815 145.597 322.96 145.621C343.322 148.972 355 154.37 355 160.429C355 170.497 322.247 178.383 280.434 178.383Z" fill="#CCCCCC"/>
<path d="M243.441 181.765C247.224 188.507 252.642 194.098 259.153 197.976C265.664 201.855 273.039 203.886 280.541 203.866C288.043 203.847 295.409 201.777 301.901 197.864C308.393 193.951 313.784 188.333 317.534 181.57C292.858 183.048 268.123 183.113 243.441 181.765Z" fill="#E6E6E6"/>
<path d="M321.635 169.188C323.459 162.532 323.769 155.526 322.541 148.725C321.314 141.923 318.582 135.512 314.562 129.999C310.542 124.486 305.344 120.023 299.38 116.962C293.416 113.901 286.85 112.327 280.2 112.365C273.551 112.402 267.001 114.05 261.069 117.177C255.138 120.305 249.987 124.827 246.024 130.384C242.062 135.942 239.397 142.384 238.24 149.199C237.083 156.014 237.465 163.016 239.358 169.651C266.688 173.2 294.344 173.045 321.635 169.188Z" fill="#E6E6E6"/>
<path d="M66.4734 5.2125C66.4732 4.27012 66.2275 3.34543 65.7625 2.53683C65.2974 1.72823 64.6305 1.06596 63.8326 0.620489C63.0347 0.175018 62.1357 -0.0369845 61.2313 0.00703315C60.3268 0.0510507 59.4508 0.349443 58.6963 0.870463C57.9418 1.39148 57.3372 2.11564 56.9467 2.96588C56.5562 3.81612 56.3945 4.76063 56.4788 5.69892C56.563 6.63721 56.8901 7.53417 57.4252 8.29437C57.9603 9.05457 58.6834 9.64956 59.5176 10.016V37.0667H63.4128V10.016C64.3202 9.61721 65.0945 8.94883 65.6388 8.09446C66.1832 7.24009 66.4735 6.23765 66.4734 5.2125Z" fill="#CCCCCC"/>
<path d="M94.5765 134.946H94.5749C93.0777 134.944 91.5962 134.628 90.2189 134.017C88.8416 133.407 87.5967 132.513 86.5586 131.39C85.5206 130.267 84.7106 128.938 84.1771 127.482C83.6436 126.026 83.3975 124.473 83.4536 122.916C83.6767 116.775 88.7851 111.779 94.8413 111.779H125.416L150.575 100.187C151.25 99.8773 152.015 99.8586 152.703 100.135C153.391 100.412 153.946 100.961 154.245 101.662L161.003 117.55C161.301 118.253 161.319 119.049 161.053 119.766C160.787 120.482 160.26 121.059 159.586 121.37L134.805 132.788C132.351 133.923 129.699 134.523 127.014 134.552L94.5765 134.946Z" fill="#CCCCCC"/>
<path d="M20.4633 195.957C20.3183 195.957 20.1735 195.944 20.0306 195.918L3.5759 192.996H3.57604C3.24677 192.937 2.93206 192.811 2.65045 192.624C2.36884 192.437 2.12603 192.193 1.93629 191.907C1.74656 191.621 1.61376 191.298 1.54569 190.958C1.47763 190.618 1.47569 190.267 1.53999 189.925L14.4196 121.554C14.9046 118.602 16.4966 115.971 18.8454 114.24C21.1941 112.509 24.1073 111.821 26.944 112.325C29.7807 112.83 32.3085 114.487 33.9715 116.932C35.6344 119.376 36.2961 122.408 35.8111 125.361L22.9092 193.851C22.8012 194.444 22.4976 194.978 22.051 195.363C21.6044 195.747 21.0429 195.957 20.4633 195.957Z" fill="#CCCCCC"/>
<path d="M11.6616 210.817C17.1935 210.817 21.678 206.149 21.678 200.392C21.678 194.634 17.1935 189.967 11.6616 189.967C6.12974 189.967 1.64526 194.634 1.64526 200.392C1.64526 206.149 6.12974 210.817 11.6616 210.817Z" fill="#E6E6E6"/>
<path d="M60.2538 111.013C80.8447 111.013 97.5369 93.6398 97.5369 72.2089C97.5369 50.7779 80.8447 33.4047 60.2538 33.4047C39.6629 33.4047 22.9707 50.7779 22.9707 72.2089C22.9707 93.6398 39.6629 111.013 60.2538 111.013Z" fill="#E6E6E6"/>
<path d="M60.2538 111.013C80.8447 111.013 97.5369 93.6398 97.5369 72.2089C97.5369 50.7779 80.8447 33.4047 60.2538 33.4047C39.6629 33.4047 22.9707 50.7779 22.9707 72.2089C22.9707 93.6398 39.6629 111.013 60.2538 111.013Z" fill="#E6E6E6"/>
<path d="M60.2537 101.746C75.9274 101.746 88.6334 88.522 88.6334 72.2089C88.6334 55.8958 75.9274 42.6714 60.2537 42.6714C44.58 42.6714 31.874 55.8958 31.874 72.2089C31.874 88.522 44.58 101.746 60.2537 101.746Z" fill="#364FC7"/>
<path d="M63.5716 84.6082C61.732 84.555 59.4425 84.4886 57.6786 83.1476C57.1534 82.7319 56.7219 82.2017 56.4143 81.5941C56.1067 80.9866 55.9304 80.3163 55.8979 79.6304C55.866 79.143 55.9429 78.6544 56.1224 78.203C56.302 77.7516 56.5795 77.3495 56.9331 77.0281C57.8544 76.2179 59.1996 76.0279 60.6493 76.4713L59.1473 65.0469L60.2499 64.8897L62.0157 78.3206L61.095 77.8808C60.0275 77.3712 58.5621 77.1119 57.6516 77.9128C57.428 78.1221 57.2538 78.3824 57.1425 78.6732C57.0313 78.9641 56.986 79.2777 57.0101 79.5897C57.0371 80.1002 57.1694 80.5987 57.3981 81.0512C57.6267 81.5037 57.9464 81.8997 58.3352 82.2121C59.7078 83.2556 61.5328 83.3902 63.6026 83.4505L63.5716 84.6082Z" fill="#2F2E41"/>
<path d="M53.6945 66.0322H47.7004V67.1905H53.6945V66.0322Z" fill="#2F2E41"/>
<path d="M72.6141 66.0322H66.6201V67.1905H72.6141V66.0322Z" fill="#2F2E41"/>
<path opacity="0.2" d="M41.1541 72.3959C41.1546 65.3378 43.5828 58.5131 47.9992 53.1571C52.4156 47.801 58.5284 44.2675 65.2312 43.1962C61.1813 42.484 57.0311 42.6955 53.0673 43.8159C49.1036 44.9363 45.4207 46.9389 42.2733 49.6855C39.1258 52.432 36.5887 55.8569 34.8373 59.7237C33.0859 63.5905 32.1619 67.8069 32.1291 72.0817C32.0963 76.3564 32.9555 80.5877 34.6474 84.483C36.3393 88.3784 38.8235 91.8451 41.9285 94.6436C45.0334 97.442 48.6851 99.5056 52.6312 100.692C56.5772 101.878 60.7236 102.158 64.784 101.513C58.176 100.345 52.1785 96.7811 47.8535 91.4517C43.5286 86.1224 41.1553 79.3719 41.1541 72.3959Z" fill="black"/>
<path d="M88.6331 196.048H31.8738C29.4395 196.045 27.1057 195.037 25.3844 193.246C23.6631 191.454 22.6949 189.025 22.6921 186.492V119.887C22.6949 117.354 23.6631 114.925 25.3844 113.133C27.1057 111.342 29.4395 110.334 31.8738 110.331H40.499V112.937C40.5009 114.703 41.1757 116.396 42.3754 117.645C43.5751 118.894 45.2017 119.596 46.8983 119.598H73.6086C75.3052 119.596 76.9318 118.894 78.1315 117.645C79.3312 116.396 80.006 114.703 80.0079 112.937V110.331H88.6331C91.0674 110.334 93.4012 111.342 95.1225 113.133C96.8438 114.925 97.812 117.354 97.8148 119.887V186.492C97.812 189.025 96.8438 191.454 95.1225 193.246C93.4012 195.037 91.0674 196.045 88.6331 196.048Z" fill="#E6E6E6"/>
<path d="M96.2489 260.046H73.9855V233.295L44.9097 186.894L63.5537 174.239L92.5023 220.437C94.5752 223.743 95.7092 227.59 95.7737 231.537L96.2489 260.046Z" fill="#E6E6E6"/>
<path d="M57.0134 277.71H35.3113V209.948H57.0134V277.71Z" fill="#E6E6E6"/>
<path d="M84.1816 216.319H36.3256C35.0716 216.317 33.8694 215.798 32.9826 214.875C32.0959 213.952 31.5971 212.701 31.5957 211.396V192.862C31.5971 191.557 32.0959 190.306 32.9826 189.383C33.8694 188.46 35.0716 187.941 36.3256 187.94H84.1816C85.4356 187.941 86.6379 188.46 87.5246 189.383C88.4113 190.306 88.9101 191.557 88.9115 192.862V211.396C88.9101 212.701 88.4113 213.952 87.5246 214.875C86.6379 215.798 85.4356 216.317 84.1816 216.319Z" fill="#E6E6E6"/>
<path d="M100.139 270.76H74.2639V252.806H100.139C102.427 252.806 104.621 253.752 106.238 255.436C107.856 257.119 108.765 259.402 108.765 261.783C108.765 264.164 107.856 266.448 106.238 268.131C104.621 269.815 102.427 270.76 100.139 270.76Z" fill="#CCCCCC"/>
<path d="M61.1869 277.71H35.3113V259.756H61.1869C63.4744 259.756 65.6682 260.702 67.2858 262.386C68.9033 264.069 69.812 266.352 69.812 268.733C69.812 271.114 68.9033 273.398 67.2858 275.081C65.6682 276.765 63.4744 277.71 61.1869 277.71Z" fill="#CCCCCC"/>
<path d="M87.3407 139.869H66.7516C66.235 139.869 65.7396 139.655 65.3744 139.275C65.0091 138.895 64.804 138.379 64.804 137.842C64.804 137.304 65.0091 136.788 65.3744 136.408C65.7396 136.028 66.235 135.815 66.7516 135.815H87.3407C87.8573 135.815 88.3527 136.028 88.7179 136.408C89.0832 136.788 89.2884 137.304 89.2884 137.842C89.2884 138.379 89.0832 138.895 88.7179 139.275C88.3527 139.655 87.8573 139.869 87.3407 139.869Z" fill="white"/>
<path d="M87.3407 147.108H66.7516C66.235 147.108 65.7396 146.895 65.3744 146.515C65.0091 146.134 64.804 145.619 64.804 145.081C64.804 144.544 65.0091 144.028 65.3744 143.648C65.7396 143.268 66.235 143.054 66.7516 143.054H87.3407C87.8573 143.054 88.3527 143.268 88.7179 143.648C89.0832 144.028 89.2884 144.544 89.2884 145.081C89.2884 145.619 89.0832 146.134 88.7179 146.515C88.3527 146.895 87.8573 147.108 87.3407 147.108Z" fill="white"/>
<path d="M122.422 278H0.556464C0.408881 278 0.26735 277.939 0.162993 277.83C0.0586354 277.722 0 277.574 0 277.421C0 277.267 0.0586354 277.12 0.162993 277.011C0.26735 276.903 0.408881 276.842 0.556464 276.842H122.422C122.57 276.842 122.711 276.903 122.816 277.011C122.92 277.12 122.979 277.267 122.979 277.421C122.979 277.574 122.92 277.722 122.816 277.83C122.711 277.939 122.57 278 122.422 278Z" fill="#3F3D56"/>
<path d="M162.463 116.992C167.995 116.992 172.48 112.324 172.48 106.567C172.48 100.809 167.995 96.1417 162.463 96.1417C156.931 96.1417 152.447 100.809 152.447 106.567C152.447 112.324 156.931 116.992 162.463 116.992Z" fill="#E6E6E6"/>
<path d="M165.524 148.556C164.639 148.555 163.79 148.189 163.164 147.537C162.538 146.886 162.186 146.003 162.185 145.081V19.9813C162.185 19.0596 162.537 18.1757 163.163 17.5241C163.789 16.8724 164.638 16.5063 165.524 16.5063C166.409 16.5063 167.259 16.8724 167.885 17.5241C168.511 18.1757 168.863 19.0596 168.863 19.9813V145.081C168.862 146.003 168.51 146.886 167.884 147.537C167.258 148.189 166.409 148.555 165.524 148.556Z" fill="#3F3D56"/>
<path d="M266.889 17.5719C263.957 14.9019 253.885 6.5909 240.891 5.07348C231.17 3.94411 219.813 6.61407 208.589 18.3017C199.585 27.6726 191.094 32.1148 183.348 31.5124C175.44 30.8928 170.182 25.0431 167.75 21.6087C167.579 21.3632 167.337 21.1811 167.06 21.0894C166.782 20.9976 166.484 21.001 166.208 21.099C165.927 21.1909 165.682 21.3745 165.508 21.6227C165.335 21.8709 165.243 22.1706 165.246 22.4774V65.718C165.246 65.9921 165.321 66.2604 165.462 66.492C165.603 66.7236 165.804 66.9091 166.042 67.0269C169.074 68.5212 179.997 73.4846 190.993 73.4846C197.443 73.4846 203.925 71.7761 208.845 66.6505C208.895 66.5983 208.939 66.552 208.989 66.5057C217.704 57.6792 236.913 59.492 250.93 62.3762C256.728 63.5693 261.636 64.9419 264.547 65.8223C264.919 65.9343 265.312 65.9546 265.693 65.8815C266.074 65.8085 266.434 65.6441 266.744 65.4014C267.054 65.1587 267.305 64.8444 267.478 64.4832C267.651 64.122 267.741 63.7238 267.741 63.3203V19.5353C267.741 19.1638 267.665 18.7966 267.518 18.4581C267.372 18.1195 267.157 17.8174 266.889 17.5719Z" fill="#364FC7"/>
<path d="M289.337 140.737C292.103 140.737 294.345 138.404 294.345 135.525C294.345 132.646 292.103 130.312 289.337 130.312C286.571 130.312 284.329 132.646 284.329 135.525C284.329 138.404 286.571 140.737 289.337 140.737Z" fill="white"/>
<path d="M280.434 198.075C283.2 198.075 285.442 195.741 285.442 192.863C285.442 189.984 283.2 187.65 280.434 187.65C277.668 187.65 275.426 189.984 275.426 192.863C275.426 195.741 277.668 198.075 280.434 198.075Z" fill="white"/>
<path d="M264.296 162.167C268.906 162.167 272.643 158.277 272.643 153.479C272.643 148.681 268.906 144.792 264.296 144.792C259.686 144.792 255.949 148.681 255.949 153.479C255.949 158.277 259.686 162.167 264.296 162.167Z" fill="white"/>
</g>
<defs>
<clipPath id="clip0">
<rect width="355" height="278" fill="white"/>
</clipPath>
</defs>
</svg>
