<svg width="590" height="380" viewBox="0 0 590 380" fill="none" xmlns="http://www.w3.org/2000/svg">
<path d="M61.8803 325.36C60.4883 322.432 58.4723 320.176 55.8323 318.592C53.1923 316.96 50.1203 316.144 46.6163 316.144C43.1123 316.144 39.9443 316.96 37.1123 318.592C34.3283 320.176 32.1203 322.48 30.4883 325.504C28.9043 328.48 28.1123 331.936 28.1123 335.872C28.1123 339.808 28.9043 343.264 30.4883 346.24C32.1203 349.216 34.3283 351.52 37.1123 353.152C39.9443 354.736 43.1123 355.528 46.6163 355.528C51.5123 355.528 55.5443 354.064 58.7123 351.136C61.8803 348.208 63.7283 344.248 64.2563 339.256H44.2403V333.928H71.2403V338.968C70.8563 343.096 69.5603 346.888 67.3523 350.344C65.1443 353.752 62.2403 356.464 58.6403 358.48C55.0403 360.448 51.0323 361.432 46.6163 361.432C41.9603 361.432 37.7123 360.352 33.8723 358.192C30.0323 355.984 26.9843 352.936 24.7283 349.048C22.5203 345.16 21.4163 340.768 21.4163 335.872C21.4163 330.976 22.5203 326.584 24.7283 322.696C26.9843 318.76 30.0323 315.712 33.8723 313.552C37.7123 311.344 41.9603 310.24 46.6163 310.24C51.9443 310.24 56.6483 311.56 60.7283 314.2C64.8563 316.84 67.8563 320.56 69.7283 325.36H61.8803ZM83.2874 315.136C82.0394 315.136 80.9834 314.704 80.1194 313.84C79.2554 312.976 78.8234 311.92 78.8234 310.672C78.8234 309.424 79.2554 308.368 80.1194 307.504C80.9834 306.64 82.0394 306.208 83.2874 306.208C84.4874 306.208 85.4954 306.64 86.3114 307.504C87.1754 308.368 87.6074 309.424 87.6074 310.672C87.6074 311.92 87.1754 312.976 86.3114 313.84C85.4954 314.704 84.4874 315.136 83.2874 315.136ZM86.4554 321.544V361H79.9034V321.544H86.4554ZM105.614 326.944V350.2C105.614 352.12 106.022 353.488 106.838 354.304C107.654 355.072 109.07 355.456 111.086 355.456H115.91V361H110.006C106.358 361 103.622 360.16 101.798 358.48C99.9741 356.8 99.0621 354.04 99.0621 350.2V326.944H93.9501V321.544H99.0621V311.608H105.614V321.544H115.91V326.944H105.614ZM130.401 355.672H147.969V361H123.849V310.816H130.401V355.672ZM152.479 341.128C152.479 337.096 153.295 333.568 154.927 330.544C156.559 327.472 158.791 325.096 161.623 323.416C164.503 321.736 167.695 320.896 171.199 320.896C174.655 320.896 177.655 321.64 180.199 323.128C182.743 324.616 184.639 326.488 185.887 328.744V321.544H192.511V361H185.887V353.656C184.591 355.96 182.647 357.88 180.055 359.416C177.511 360.904 174.535 361.648 171.127 361.648C167.623 361.648 164.455 360.784 161.623 359.056C158.791 357.328 156.559 354.904 154.927 351.784C153.295 348.664 152.479 345.112 152.479 341.128ZM185.887 341.2C185.887 338.224 185.287 335.632 184.087 333.424C182.887 331.216 181.255 329.536 179.191 328.384C177.175 327.184 174.943 326.584 172.495 326.584C170.047 326.584 167.815 327.16 165.799 328.312C163.783 329.464 162.175 331.144 160.975 333.352C159.775 335.56 159.175 338.152 159.175 341.128C159.175 344.152 159.775 346.792 160.975 349.048C162.175 351.256 163.783 352.96 165.799 354.16C167.815 355.312 170.047 355.888 172.495 355.888C174.943 355.888 177.175 355.312 179.191 354.16C181.255 352.96 182.887 351.256 184.087 349.048C185.287 346.792 185.887 344.176 185.887 341.2ZM210.135 328.888C211.479 326.536 213.447 324.616 216.039 323.128C218.631 321.64 221.583 320.896 224.895 320.896C228.447 320.896 231.639 321.736 234.471 323.416C237.303 325.096 239.535 327.472 241.167 330.544C242.799 333.568 243.615 337.096 243.615 341.128C243.615 345.112 242.799 348.664 241.167 351.784C239.535 354.904 237.279 357.328 234.399 359.056C231.567 360.784 228.399 361.648 224.895 361.648C221.487 361.648 218.487 360.904 215.895 359.416C213.351 357.928 211.431 356.032 210.135 353.728V361H203.583V307.72H210.135V328.888ZM236.919 341.128C236.919 338.152 236.319 335.56 235.119 333.352C233.919 331.144 232.287 329.464 230.223 328.312C228.207 327.16 225.975 326.584 223.527 326.584C221.127 326.584 218.895 327.184 216.831 328.384C214.815 329.536 213.183 331.24 211.935 333.496C210.735 335.704 210.135 338.272 210.135 341.2C210.135 344.176 210.735 346.792 211.935 349.048C213.183 351.256 214.815 352.96 216.831 354.16C218.895 355.312 221.127 355.888 223.527 355.888C225.975 355.888 228.207 355.312 230.223 354.16C232.287 352.96 233.919 351.256 235.119 349.048C236.319 346.792 236.919 344.152 236.919 341.128ZM301.099 349.84H279.211L275.179 361H268.267L286.411 311.104H293.971L312.043 361H305.131L301.099 349.84ZM299.227 344.512L290.155 319.168L281.083 344.512H299.227ZM339.174 320.824C343.974 320.824 347.862 322.288 350.838 325.216C353.814 328.096 355.302 332.272 355.302 337.744V361H348.822V338.68C348.822 334.744 347.838 331.744 345.87 329.68C343.902 327.568 341.214 326.512 337.806 326.512C334.35 326.512 331.59 327.592 329.526 329.752C327.51 331.912 326.502 335.056 326.502 339.184V361H319.95V321.544H326.502V327.16C327.798 325.144 329.55 323.584 331.758 322.48C334.014 321.376 336.486 320.824 339.174 320.824ZM363.557 341.128C363.557 337.096 364.373 333.568 366.005 330.544C367.637 327.472 369.869 325.096 372.701 323.416C375.581 321.736 378.773 320.896 382.277 320.896C385.733 320.896 388.733 321.64 391.277 323.128C393.821 324.616 395.717 326.488 396.965 328.744V321.544H403.589V361H396.965V353.656C395.669 355.96 393.725 357.88 391.133 359.416C388.589 360.904 385.613 361.648 382.205 361.648C378.701 361.648 375.533 360.784 372.701 359.056C369.869 357.328 367.637 354.904 366.005 351.784C364.373 348.664 363.557 345.112 363.557 341.128ZM396.965 341.2C396.965 338.224 396.365 335.632 395.165 333.424C393.965 331.216 392.333 329.536 390.269 328.384C388.253 327.184 386.021 326.584 383.573 326.584C381.125 326.584 378.893 327.16 376.877 328.312C374.861 329.464 373.253 331.144 372.053 333.352C370.853 335.56 370.253 338.152 370.253 341.128C370.253 344.152 370.853 346.792 372.053 349.048C373.253 351.256 374.861 352.96 376.877 354.16C378.893 355.312 381.125 355.888 383.573 355.888C386.021 355.888 388.253 355.312 390.269 354.16C392.333 352.96 393.965 351.256 395.165 349.048C396.365 346.792 396.965 344.176 396.965 341.2ZM421.213 307.72V361H414.661V307.72H421.213ZM466.364 321.544L442.604 379.576H435.836L443.612 360.568L427.7 321.544H434.972L447.356 353.512L459.596 321.544H466.364ZM477.846 355.6H497.214V361H470.358V355.6L489.51 326.872H470.502V321.544H497.07V326.872L477.846 355.6ZM541.716 339.76C541.716 341.008 541.644 342.328 541.5 343.72H509.964C510.204 347.608 511.524 350.656 513.924 352.864C516.372 355.024 519.324 356.104 522.78 356.104C525.612 356.104 527.964 355.456 529.836 354.16C531.756 352.816 533.1 351.04 533.868 348.832H540.924C539.868 352.624 537.756 355.72 534.588 358.12C531.42 360.472 527.484 361.648 522.78 361.648C519.036 361.648 515.676 360.808 512.7 359.128C509.772 357.448 507.468 355.072 505.788 352C504.108 348.88 503.268 345.28 503.268 341.2C503.268 337.12 504.084 333.544 505.716 330.472C507.348 327.4 509.628 325.048 512.556 323.416C515.532 321.736 518.94 320.896 522.78 320.896C526.524 320.896 529.836 321.712 532.716 323.344C535.596 324.976 537.804 327.232 539.34 330.112C540.924 332.944 541.716 336.16 541.716 339.76ZM534.948 338.392C534.948 335.896 534.396 333.76 533.292 331.984C532.188 330.16 530.676 328.792 528.756 327.88C526.884 326.92 524.796 326.44 522.492 326.44C519.18 326.44 516.348 327.496 513.996 329.608C511.692 331.72 510.372 334.648 510.036 338.392H534.948ZM556.916 327.952C558.068 325.696 559.7 323.944 561.812 322.696C563.972 321.448 566.588 320.824 569.66 320.824V327.592H567.932C560.588 327.592 556.916 331.576 556.916 339.544V361H550.364V321.544H556.916V327.952Z" fill="black"/>
<g clip-path="url(#clip0)">
<path d="M398.434 178.383C356.621 178.383 323.868 170.497 323.868 160.429C323.868 154.393 335.473 149.008 355.709 145.654C355.781 145.642 355.855 145.644 355.926 145.662C355.998 145.679 356.065 145.711 356.124 145.756C356.184 145.8 356.234 145.857 356.273 145.922C356.311 145.987 356.337 146.059 356.348 146.134C356.36 146.21 356.357 146.287 356.34 146.361C356.323 146.435 356.292 146.505 356.248 146.567C356.205 146.628 356.151 146.68 356.088 146.72C356.026 146.76 355.956 146.786 355.884 146.798C336.822 149.957 324.981 155.18 324.981 160.429C324.981 169.534 358.618 177.225 398.434 177.225C438.25 177.225 471.887 169.534 471.887 160.429C471.887 155.158 459.97 149.922 440.787 146.765C440.641 146.741 440.511 146.657 440.424 146.533C440.338 146.409 440.302 146.254 440.325 146.103C440.348 145.951 440.428 145.815 440.547 145.725C440.666 145.635 440.815 145.597 440.96 145.621C461.322 148.972 473 154.37 473 160.429C473 170.497 440.247 178.383 398.434 178.383Z" fill="#CCCCCC"/>
<path d="M361.441 181.765C365.224 188.507 370.642 194.098 377.153 197.976C383.664 201.855 391.039 203.886 398.541 203.866C406.043 203.847 413.409 201.777 419.901 197.864C426.393 193.951 431.784 188.333 435.534 181.57C410.858 183.048 386.123 183.113 361.441 181.765V181.765Z" fill="#E6E6E6"/>
<path d="M439.635 169.188C441.459 162.532 441.769 155.526 440.541 148.725C439.314 141.923 436.582 135.512 432.562 129.999C428.542 124.486 423.344 120.023 417.38 116.962C411.416 113.901 404.85 112.327 398.2 112.365C391.551 112.402 385.001 114.05 379.069 117.177C373.138 120.305 367.987 124.827 364.024 130.384C360.062 135.942 357.397 142.384 356.24 149.199C355.083 156.014 355.465 163.016 357.358 169.651C384.688 173.2 412.344 173.045 439.635 169.188Z" fill="#E6E6E6"/>
<path d="M184.473 5.2125C184.473 4.27012 184.227 3.34543 183.762 2.53683C183.297 1.72823 182.631 1.06596 181.833 0.620489C181.035 0.175018 180.136 -0.0369845 179.231 0.00703314C178.327 0.0510507 177.451 0.349443 176.696 0.870463C175.942 1.39148 175.337 2.11564 174.947 2.96588C174.556 3.81612 174.395 4.76063 174.479 5.69892C174.563 6.63721 174.89 7.53417 175.425 8.29437C175.96 9.05457 176.683 9.64956 177.518 10.016V37.0667H181.413V10.016C182.32 9.61721 183.094 8.94883 183.639 8.09446C184.183 7.24009 184.473 6.23765 184.473 5.2125V5.2125Z" fill="#CCCCCC"/>
<path d="M212.577 134.946H212.575C211.078 134.944 209.596 134.628 208.219 134.017C206.842 133.407 205.597 132.513 204.559 131.39C203.521 130.267 202.711 128.938 202.177 127.482C201.644 126.026 201.398 124.473 201.454 122.916C201.677 116.775 206.785 111.779 212.841 111.779H243.416L268.575 100.187C269.25 99.8773 270.015 99.8586 270.703 100.135C271.391 100.412 271.946 100.961 272.245 101.662L279.003 117.55C279.301 118.253 279.319 119.049 279.053 119.766C278.787 120.482 278.26 121.059 277.586 121.37L252.805 132.788C250.351 133.923 247.699 134.523 245.014 134.552L212.577 134.946Z" fill="#CCCCCC"/>
<path d="M138.463 195.957C138.318 195.957 138.174 195.944 138.031 195.918L121.576 192.996H121.576C121.247 192.937 120.932 192.811 120.65 192.624C120.369 192.437 120.126 192.193 119.936 191.907C119.747 191.621 119.614 191.298 119.546 190.958C119.478 190.618 119.476 190.267 119.54 189.925L132.42 121.554C132.905 118.602 134.497 115.971 136.845 114.24C139.194 112.509 142.107 111.821 144.944 112.325C147.781 112.83 150.309 114.487 151.971 116.932C153.634 119.376 154.296 122.408 153.811 125.361L140.909 193.851C140.801 194.444 140.498 194.978 140.051 195.363C139.604 195.747 139.043 195.957 138.463 195.957V195.957Z" fill="#CCCCCC"/>
<path d="M129.662 210.817C135.193 210.817 139.678 206.149 139.678 200.392C139.678 194.634 135.193 189.967 129.662 189.967C124.13 189.967 119.645 194.634 119.645 200.392C119.645 206.149 124.13 210.817 129.662 210.817Z" fill="#E6E6E6"/>
<path d="M178.254 111.013C198.845 111.013 215.537 93.6398 215.537 72.2089C215.537 50.7779 198.845 33.4047 178.254 33.4047C157.663 33.4047 140.971 50.7779 140.971 72.2089C140.971 93.6398 157.663 111.013 178.254 111.013Z" fill="#E6E6E6"/>
<path d="M178.254 111.013C198.845 111.013 215.537 93.6398 215.537 72.2089C215.537 50.7779 198.845 33.4047 178.254 33.4047C157.663 33.4047 140.971 50.7779 140.971 72.2089C140.971 93.6398 157.663 111.013 178.254 111.013Z" fill="#E6E6E6"/>
<path d="M178.254 101.746C193.927 101.746 206.633 88.522 206.633 72.2089C206.633 55.8958 193.927 42.6714 178.254 42.6714C162.58 42.6714 149.874 55.8958 149.874 72.2089C149.874 88.522 162.58 101.746 178.254 101.746Z" fill="#364FC7"/>
<path d="M181.572 84.6082C179.732 84.555 177.442 84.4886 175.679 83.1476C175.153 82.7319 174.722 82.2017 174.414 81.5941C174.107 80.9866 173.93 80.3163 173.898 79.6304C173.866 79.143 173.943 78.6544 174.122 78.203C174.302 77.7516 174.579 77.3495 174.933 77.0281C175.854 76.2179 177.2 76.0279 178.649 76.4713L177.147 65.0469L178.25 64.8897L180.016 78.3206L179.095 77.8808C178.027 77.3712 176.562 77.1119 175.652 77.9128C175.428 78.1221 175.254 78.3824 175.143 78.6732C175.031 78.9641 174.986 79.2777 175.01 79.5897C175.037 80.1002 175.169 80.5987 175.398 81.0512C175.627 81.5037 175.946 81.8997 176.335 82.2121C177.708 83.2556 179.533 83.3902 181.603 83.4505L181.572 84.6082Z" fill="#2F2E41"/>
<path d="M171.694 66.0322H165.7V67.1905H171.694V66.0322Z" fill="#2F2E41"/>
<path d="M190.614 66.0322H184.62V67.1905H190.614V66.0322Z" fill="#2F2E41"/>
<path opacity="0.2" d="M159.154 72.3959C159.155 65.3378 161.583 58.5131 165.999 53.1571C170.416 47.801 176.528 44.2675 183.231 43.1962C179.181 42.484 175.031 42.6955 171.067 43.8159C167.104 44.9363 163.421 46.9389 160.273 49.6855C157.126 52.432 154.589 55.8569 152.837 59.7237C151.086 63.5905 150.162 67.8069 150.129 72.0817C150.096 76.3564 150.956 80.5877 152.647 84.483C154.339 88.3784 156.824 91.8451 159.928 94.6436C163.033 97.442 166.685 99.5056 170.631 100.692C174.577 101.878 178.724 102.158 182.784 101.513C176.176 100.345 170.178 96.7811 165.854 91.4517C161.529 86.1224 159.155 79.3719 159.154 72.3959V72.3959Z" fill="black"/>
<path d="M206.633 196.048H149.874C147.44 196.045 145.106 195.037 143.384 193.246C141.663 191.454 140.695 189.025 140.692 186.492V119.887C140.695 117.354 141.663 114.925 143.384 113.133C145.106 111.342 147.44 110.334 149.874 110.331H158.499V112.937C158.501 114.703 159.176 116.396 160.375 117.645C161.575 118.894 163.202 119.596 164.898 119.598H191.609C193.305 119.596 194.932 118.894 196.132 117.645C197.331 116.396 198.006 114.703 198.008 112.937V110.331H206.633C209.067 110.334 211.401 111.342 213.123 113.133C214.844 114.925 215.812 117.354 215.815 119.887V186.492C215.812 189.025 214.844 191.454 213.123 193.246C211.401 195.037 209.067 196.045 206.633 196.048Z" fill="#E6E6E6"/>
<path d="M214.249 260.046H191.985V233.295L162.91 186.894L181.554 174.239L210.502 220.437C212.575 223.743 213.709 227.59 213.774 231.537L214.249 260.046Z" fill="#E6E6E6"/>
<path d="M175.013 277.71H153.311V209.948H175.013V277.71Z" fill="#E6E6E6"/>
<path d="M202.182 216.319H154.326C153.072 216.317 151.869 215.798 150.983 214.875C150.096 213.952 149.597 212.701 149.596 211.396V192.862C149.597 191.557 150.096 190.306 150.983 189.383C151.869 188.46 153.072 187.941 154.326 187.94H202.182C203.436 187.941 204.638 188.46 205.525 189.383C206.411 190.306 206.91 191.557 206.912 192.862V211.396C206.91 212.701 206.411 213.952 205.525 214.875C204.638 215.798 203.436 216.317 202.182 216.319Z" fill="#E6E6E6"/>
<path d="M218.139 270.76H192.264V252.806H218.139C220.427 252.806 222.621 253.752 224.238 255.436C225.856 257.119 226.765 259.402 226.765 261.783C226.765 264.164 225.856 266.448 224.238 268.131C222.621 269.815 220.427 270.76 218.139 270.76V270.76Z" fill="#CCCCCC"/>
<path d="M179.187 277.71H153.311V259.756H179.187C181.474 259.756 183.668 260.702 185.286 262.386C186.903 264.069 187.812 266.352 187.812 268.733C187.812 271.114 186.903 273.398 185.286 275.081C183.668 276.765 181.474 277.71 179.187 277.71V277.71Z" fill="#CCCCCC"/>
<path d="M205.341 139.869H184.752C184.235 139.869 183.74 139.655 183.374 139.275C183.009 138.895 182.804 138.379 182.804 137.842C182.804 137.304 183.009 136.788 183.374 136.408C183.74 136.028 184.235 135.815 184.752 135.815H205.341C205.857 135.815 206.353 136.028 206.718 136.408C207.083 136.788 207.288 137.304 207.288 137.842C207.288 138.379 207.083 138.895 206.718 139.275C206.353 139.655 205.857 139.869 205.341 139.869V139.869Z" fill="white"/>
<path d="M205.341 147.108H184.752C184.235 147.108 183.74 146.895 183.374 146.515C183.009 146.134 182.804 145.619 182.804 145.081C182.804 144.544 183.009 144.028 183.374 143.648C183.74 143.268 184.235 143.054 184.752 143.054H205.341C205.857 143.054 206.353 143.268 206.718 143.648C207.083 144.028 207.288 144.544 207.288 145.081C207.288 145.619 207.083 146.134 206.718 146.515C206.353 146.895 205.857 147.108 205.341 147.108V147.108Z" fill="white"/>
<path d="M240.422 278H118.556C118.409 278 118.267 277.939 118.163 277.83C118.059 277.722 118 277.574 118 277.421C118 277.267 118.059 277.12 118.163 277.011C118.267 276.903 118.409 276.842 118.556 276.842H240.422C240.57 276.842 240.711 276.903 240.816 277.011C240.92 277.12 240.979 277.267 240.979 277.421C240.979 277.574 240.92 277.722 240.816 277.83C240.711 277.939 240.57 278 240.422 278Z" fill="#3F3D56"/>
<path d="M280.463 116.992C285.995 116.992 290.48 112.324 290.48 106.567C290.48 100.809 285.995 96.1417 280.463 96.1417C274.931 96.1417 270.447 100.809 270.447 106.567C270.447 112.324 274.931 116.992 280.463 116.992Z" fill="#E6E6E6"/>
<path d="M283.524 148.556C282.639 148.555 281.79 148.189 281.164 147.537C280.538 146.886 280.186 146.003 280.185 145.081V19.9813C280.185 19.0596 280.537 18.1757 281.163 17.5241C281.789 16.8724 282.638 16.5063 283.524 16.5063C284.409 16.5063 285.259 16.8724 285.885 17.5241C286.511 18.1757 286.863 19.0596 286.863 19.9813V145.081C286.862 146.003 286.51 146.886 285.884 147.537C285.258 148.189 284.409 148.555 283.524 148.556V148.556Z" fill="#3F3D56"/>
<path d="M384.889 17.5719C381.957 14.9019 371.885 6.5909 358.891 5.07348C349.17 3.94411 337.813 6.61407 326.589 18.3017C317.585 27.6726 309.094 32.1148 301.348 31.5124C293.44 30.8928 288.182 25.0431 285.75 21.6087C285.579 21.3632 285.337 21.1811 285.06 21.0894C284.782 20.9976 284.484 21.001 284.208 21.099C283.927 21.1909 283.682 21.3745 283.508 21.6227C283.335 21.8709 283.243 22.1706 283.246 22.4774V65.718C283.246 65.9921 283.321 66.2604 283.462 66.492C283.603 66.7236 283.804 66.9091 284.042 67.0269C287.074 68.5212 297.997 73.4846 308.993 73.4846C315.443 73.4846 321.925 71.7761 326.845 66.6505C326.895 66.5983 326.939 66.552 326.989 66.5057C335.704 57.6792 354.913 59.492 368.93 62.3762C374.728 63.5693 379.636 64.9419 382.547 65.8223C382.919 65.9343 383.312 65.9546 383.693 65.8815C384.074 65.8085 384.434 65.6441 384.744 65.4014C385.054 65.1587 385.305 64.8444 385.478 64.4832C385.651 64.122 385.741 63.7238 385.741 63.3203V19.5353C385.741 19.1638 385.665 18.7966 385.518 18.4581C385.372 18.1195 385.157 17.8174 384.889 17.5719V17.5719Z" fill="#364FC7"/>
<path d="M407.337 140.737C410.103 140.737 412.345 138.404 412.345 135.525C412.345 132.646 410.103 130.312 407.337 130.312C404.571 130.312 402.329 132.646 402.329 135.525C402.329 138.404 404.571 140.737 407.337 140.737Z" fill="white"/>
<path d="M398.434 198.075C401.2 198.075 403.442 195.741 403.442 192.863C403.442 189.984 401.2 187.65 398.434 187.65C395.668 187.65 393.426 189.984 393.426 192.863C393.426 195.741 395.668 198.075 398.434 198.075Z" fill="white"/>
<path d="M382.296 162.167C386.906 162.167 390.643 158.277 390.643 153.479C390.643 148.681 386.906 144.792 382.296 144.792C377.686 144.792 373.949 148.681 373.949 153.479C373.949 158.277 377.686 162.167 382.296 162.167Z" fill="white"/>
</g>
<defs>
<clipPath id="clip0">
<rect width="355" height="278" fill="white" transform="translate(118)"/>
</clipPath>
</defs>
</svg>
